<svg xmlns="http://www.w3.org/2000/svg" version="1.1" viewBox="150.39 81.18 230.76 315.65">
<path fill="#f7cefc" d="M 310.71,132.50 Q 310.17,121.05 310.25,133.28 Q 310.25,133.52 310.21,133.71 Q 309.95,134.87 309.61,133.52 Q 309.54,133.23 309.40,133.45 L 309.29,133.63 A 0.72,0.18 -59.8 0 1 308.88,134.05 Q 307.15,134.25 305.46,133.91 Q 303.30,133.47 302.11,133.43 Q 298.18,133.31 294.39,132.31 Q 293.63,132.11 291.18,130.88 Q 289.53,130.06 287.69,129.93 Q 284.40,129.69 283.40,129.42 Q 276.79,127.69 270.02,126.90 Q 269.86,126.89 268.39,127.04 Q 267.18,127.16 267.04,125.50 Q 266.70,106.00 266.50,86.50 Q 266.47,83.48 266.00,82.54 Q 287.75,79.83 309.56,82.51 A 1.35,1.35 -86.7 0 1 310.75,83.85 L 310.71,132.50 Z"/>
<path fill="#d99ceb" d="M 266.00,82.54 Q 266.47,83.48 266.50,86.50 Q 266.70,106.00 267.04,125.50 L 267.21,157.25 Q 266.01,157.87 264.97,157.38 Q 263.61,156.73 263.56,156.71 Q 256.11,154.45 249.69,150.12 Q 247.86,148.89 245.49,147.99 Q 243.25,147.13 241.16,145.95 Q 240.72,145.70 238.48,143.82 Q 237.27,142.81 235.50,142.00 Q 231.63,140.23 231.09,136.02 Q 230.98,135.16 230.57,133.05 Q 230.33,131.84 230.25,130.00 Q 230.09,126.50 229.96,123.00 Q 229.75,117.12 229.60,111.24 Q 229.60,111.14 229.66,108.15 Q 229.76,103.96 227.82,100.14 Q 227.75,100.00 227.75,99.85 Q 227.80,95.19 227.29,100.00 L 227.15,93.69 A 1.09,1.08 79.7 0 1 227.87,92.64 Q 246.80,85.89 266.00,82.54 Z"/>
<path fill="#e2a0ee" d="M 347.25,97.21 Q 346.59,97.78 346.90,98.41 Q 347.20,99.03 347.18,99.32 L 345.96,121.25 Q 345.65,119.43 344.26,119.97 A 0.70,0.69 -32.1 0 1 343.50,119.80 Q 342.58,118.83 341.23,119.11 A 1.10,0.94 -28.9 0 1 340.36,118.93 Q 335.46,114.99 329.25,115.43 A 1.17,1.17 -1.8 0 1 328.00,114.26 Q 328.00,108.25 328.12,102.25 Q 328.18,99.02 327.25,97.00 Q 326.92,96.28 325.99,96.40 A 1.12,0.73 -18.0 0 1 325.13,96.17 Q 324.14,95.14 324.46,93.50 L 324.98,87.06 A 0.63,0.62 -76.5 0 1 325.84,86.52 Q 334.32,90.05 342.50,94.00 Q 344.47,94.95 347.25,97.21 Z"/>
<path fill="#c091e2" d="M 324.46,93.50 Q 324.14,95.14 325.13,96.17 A 1.12,0.73 -18.0 0 0 325.99,96.40 Q 326.92,96.28 327.25,97.00 Q 328.18,99.02 328.12,102.25 Q 328.00,108.25 328.00,114.26 A 1.17,1.17 -1.8 0 0 329.25,115.43 Q 335.46,114.99 340.36,118.93 A 1.10,0.94 -28.9 0 0 341.23,119.11 Q 342.58,118.83 343.50,119.80 A 0.70,0.69 -32.1 0 0 344.26,119.97 Q 345.65,119.43 345.96,121.25 L 343.21,178.00 Q 339.94,177.35 336.84,176.13 Q 335.14,175.45 332.88,175.08 Q 330.83,174.75 328.88,173.99 A 1.01,0.58 -42.4 0 0 328.11,174.16 Q 327.70,174.42 327.54,173.50 L 327.69,156.05 A 1.99,1.98 -84.9 0 0 326.05,154.08 Q 325.15,153.93 324.95,152.01 Q 324.66,149.35 324.45,151.52 Q 324.25,153.63 324.09,155.74 Q 323.98,157.28 323.92,155.00 Q 323.71,146.25 323.71,137.50 Q 323.35,115.48 324.46,93.50 Z"/>
<path fill="#e8c5f5" d="M 347.25,97.21 Q 369.19,114.09 379.23,139.63 Q 381.24,144.75 381.14,148.12 Q 381.01,152.28 379.06,156.81 Q 373.68,169.36 367.96,181.75 Q 367.12,182.31 366.89,183.33 Q 366.41,185.41 365.88,184.22 A 0.80,0.80 57.0 0 0 364.61,183.95 Q 362.36,185.98 360.68,184.87 Q 359.00,183.76 357.04,183.32 Q 351.37,182.03 346.27,179.96 Q 344.97,179.43 344.48,180.47 A 0.54,0.39 -62.2 0 1 343.85,180.78 Q 343.46,180.55 343.29,180.00 L 343.21,178.00 L 345.96,121.25 L 347.18,99.32 Q 347.20,99.03 346.90,98.41 Q 346.59,97.78 347.25,97.21 Z"/>
<path fill="#9d83d5" d="M 229.96,123.00 L 230.54,153.75 L 231.23,182.50 A 1.18,1.09 21.4 0 0 231.63,183.33 Q 233.34,184.78 235.21,186.00 Q 235.34,186.09 238.50,188.33 Q 240.81,189.97 243.57,190.63 Q 245.68,191.13 246.85,191.81 Q 248.39,192.71 249.89,193.67 A 1.67,1.41 -26.7 0 0 250.81,193.89 L 252.50,193.79 L 251.00,195.46 Q 243.88,202.14 239.17,210.60 Q 238.91,211.06 235.46,217.12 Q 233.00,221.43 232.25,225.00 Q 231.47,228.73 230.25,230.75 Q 229.61,231.82 229.96,234.25 Q 229.42,234.97 228.54,235.25 Q 227.14,167.63 227.29,100.00 Q 227.80,95.19 227.75,99.85 Q 227.75,100.00 227.82,100.14 Q 229.76,103.96 229.66,108.15 Q 229.60,111.14 229.60,111.24 Q 229.75,117.12 229.96,123.00 Z"/>
<path fill="#e2a0ee" d="M 215.21,173.75 Q 215.07,172.81 215.00,168.75 Q 214.87,161.41 214.75,168.66 Q 214.75,168.75 214.76,168.83 Q 215.22,172.73 211.50,172.54 A 1.75,1.37 59.3 0 1 210.60,172.19 Q 208.48,170.57 206.09,169.39 Q 201.06,166.90 196.51,163.62 Q 195.97,163.23 195.42,163.03 Q 194.82,162.82 194.23,162.64 A 0.99,0.98 -0.5 0 1 193.59,162.02 Q 187.69,143.96 181.58,125.97 Q 180.21,121.96 178.25,118.21 Q 179.32,117.14 183.44,114.69 Q 196.07,107.17 209.03,100.26 Q 211.73,98.82 214.13,98.20 A 0.71,0.70 82.6 0 1 215.00,98.88 L 215.21,173.75 Z"/>
<path fill="#c394e4" d="M 178.25,118.21 Q 180.21,121.96 181.58,125.97 Q 187.69,143.96 193.59,162.02 A 0.99,0.98 -0.5 0 0 194.23,162.64 Q 194.82,162.82 195.42,163.03 Q 195.97,163.23 196.51,163.62 Q 201.06,166.90 206.09,169.39 Q 208.48,170.57 210.60,172.19 A 1.75,1.37 59.3 0 0 211.50,172.54 Q 215.22,172.73 214.76,168.83 Q 214.75,168.75 214.75,168.66 Q 214.87,161.41 215.00,168.75 Q 215.07,172.81 215.21,173.75 L 215.54,189.00 Q 215.47,192.75 215.50,196.50 Q 215.54,200.26 214.56,196.55 A 0.66,0.65 82.9 0 0 213.94,196.06 Q 209.99,195.97 207.75,194.50 Q 205.55,193.05 203.57,193.14 A 0.64,0.62 79.5 0 1 202.95,192.70 L 200.96,186.25 L 194.34,164.29 A 0.41,0.37 -24.5 0 0 193.76,164.10 Q 192.28,164.95 190.82,163.87 A 1.67,1.48 60.5 0 0 189.94,163.57 Q 187.21,163.51 184.56,161.69 Q 178.79,157.73 171.12,154.98 Q 170.61,154.79 168.94,153.81 Q 167.80,153.14 166.45,153.15 Q 166.30,153.15 165.20,153.02 Q 164.39,152.92 163.80,153.59 A 0.93,0.74 -59.8 0 1 163.01,153.90 Q 157.00,152.66 152.00,149.04 L 150.59,146.36 A 2.20,1.91 -35.5 0 1 151.19,143.87 Q 153.57,141.79 155.39,139.58 Q 157.92,136.53 159.41,135.19 Q 168.84,126.70 178.25,118.21 Z"/>
<path fill="#c091e2" d="M 229.96,123.00 Q 230.09,126.50 230.25,130.00 Q 230.33,131.84 230.57,133.05 Q 230.98,135.16 231.09,136.02 Q 231.63,140.23 235.50,142.00 Q 237.27,142.81 238.48,143.82 Q 240.72,145.70 241.16,145.95 Q 243.25,147.13 245.49,147.99 Q 247.86,148.89 249.69,150.12 Q 256.11,154.45 263.56,156.71 Q 263.61,156.73 264.97,157.38 Q 266.01,157.87 267.21,157.25 L 267.46,174.50 Q 266.97,174.50 266.82,173.99 Q 266.72,173.66 266.53,173.95 Q 265.92,174.91 264.57,174.41 Q 261.42,173.25 258.56,171.53 Q 255.81,169.89 252.97,168.77 Q 246.66,166.28 241.47,161.77 Q 237.22,158.08 232.26,155.43 A 0.91,0.80 -78.6 0 1 231.84,154.70 Q 231.79,153.57 230.54,153.75 L 229.96,123.00 Z"/>
<path fill="#e4c4f3" d="M 267.04,125.50 Q 267.18,127.16 268.39,127.04 Q 269.86,126.89 270.02,126.90 Q 276.79,127.69 283.40,129.42 Q 284.40,129.69 287.69,129.93 Q 289.53,130.06 291.18,130.88 Q 293.63,132.11 294.39,132.31 Q 298.18,133.31 302.11,133.43 Q 303.30,133.47 305.46,133.91 Q 307.15,134.25 308.88,134.05 A 0.72,0.18 -59.8 0 0 309.29,133.63 L 309.40,133.45 Q 309.54,133.23 309.61,133.52 Q 309.95,134.87 310.21,133.71 Q 310.25,133.52 310.25,133.28 Q 310.17,121.05 310.71,132.50 L 310.71,166.00 Q 310.15,166.08 309.88,165.77 A 0.94,0.49 56.4 0 0 309.19,165.39 Q 293.52,167.92 279.46,175.25 L 267.54,180.75 L 267.46,174.50 L 267.21,157.25 L 267.04,125.50 Z"/>
<path fill="#8e7bce" d="M 323.71,137.50 Q 323.71,146.25 323.92,155.00 Q 323.98,157.28 324.09,155.74 Q 324.25,153.63 324.45,151.52 Q 324.66,149.35 324.95,152.01 Q 325.15,153.93 326.05,154.08 A 1.99,1.98 -84.9 0 1 327.69,156.05 L 327.54,173.50 Q 327.65,185.38 327.25,197.25 Q 327.07,202.51 330.83,204.84 Q 331.61,205.33 336.18,207.11 Q 338.90,208.17 341.71,209.00 L 340.50,231.96 L 339.96,235.50 Q 338.62,234.22 336.93,234.18 Q 334.61,234.13 334.45,234.11 Q 332.38,233.85 330.30,234.12 A 1.37,1.14 54.9 0 1 329.41,233.88 Q 327.71,232.68 325.95,233.51 A 0.79,0.72 51.0 0 1 325.16,233.39 Q 324.54,232.89 324.31,234.06 Q 324.24,234.44 324.07,234.10 Q 323.58,233.14 323.79,235.25 Q 323.91,236.41 323.54,237.50 L 323.71,137.50 Z"/>
<path fill="#b28ddd" d="M 152.00,149.04 Q 157.00,152.66 163.01,153.90 A 0.93,0.74 -59.8 0 0 163.80,153.59 Q 164.39,152.92 165.20,153.02 Q 166.30,153.15 166.45,153.15 Q 167.80,153.14 168.94,153.81 Q 170.61,154.79 171.12,154.98 Q 178.79,157.73 184.56,161.69 Q 187.21,163.51 189.94,163.57 A 1.67,1.48 60.5 0 1 190.82,163.87 Q 192.28,164.95 193.76,164.10 A 0.41,0.37 -24.5 0 1 194.34,164.29 L 200.96,186.25 Q 200.64,186.69 200.27,186.67 Q 200.02,186.66 199.75,186.27 Q 198.64,184.63 196.93,185.50 A 2.00,1.22 -44.6 0 1 196.00,185.72 Q 194.96,185.64 193.94,185.48 Q 193.84,185.46 191.54,185.26 Q 190.14,185.13 188.97,184.39 Q 187.27,183.30 186.69,183.11 Q 182.98,181.90 179.05,182.15 A 0.77,0.71 73.8 0 1 178.35,181.73 Q 177.32,179.73 175.86,180.02 A 3.05,3.04 54.5 0 1 173.68,179.65 Q 170.77,177.92 169.39,178.70 A 0.90,0.64 76.9 0 0 169.06,179.50 Q 169.18,181.13 168.19,180.06 Q 167.08,178.88 166.04,179.25 L 152.00,149.04 Z"/>
<path fill="#b28ddd" d="M 230.54,153.75 Q 231.79,153.57 231.84,154.70 A 0.91,0.80 -78.6 0 0 232.26,155.43 Q 237.22,158.08 241.47,161.77 Q 246.66,166.28 252.97,168.77 Q 255.81,169.89 258.56,171.53 Q 261.42,173.25 264.57,174.41 Q 265.92,174.91 266.53,173.95 Q 266.72,173.66 266.82,173.99 Q 266.97,174.50 267.46,174.50 L 267.54,180.75 Q 267.24,181.05 267.25,181.46 Q 259.29,186.91 252.50,193.79 L 250.81,193.89 A 1.67,1.41 -26.7 0 1 249.89,193.67 Q 248.39,192.71 246.85,191.81 Q 245.68,191.13 243.57,190.63 Q 240.81,189.97 238.50,188.33 Q 235.34,186.09 235.21,186.00 Q 233.34,184.78 231.63,183.33 A 1.18,1.09 21.4 0 1 231.23,182.50 L 230.54,153.75 Z"/>
<path fill="#ae8add" d="M 310.71,166.00 L 310.71,178.50 L 310.23,185.69 Q 310.20,186.10 310.14,185.69 L 309.78,183.05 Q 309.72,182.64 309.38,182.95 Q 308.89,183.38 308.16,183.12 Q 303.16,181.32 297.95,180.42 Q 294.97,179.91 291.31,178.84 Q 287.45,177.70 284.50,177.75 Q 280.94,177.81 279.46,175.25 Q 293.52,167.92 309.19,165.39 A 0.94,0.49 56.4 0 1 309.88,165.77 Q 310.15,166.08 310.71,166.00 Z"/>
<path fill="#a286d7" d="M 327.54,173.50 Q 327.70,174.42 328.11,174.16 A 1.01,0.58 -42.4 0 1 328.88,173.99 Q 330.83,174.75 332.88,175.08 Q 335.14,175.45 336.84,176.13 Q 339.94,177.35 343.21,178.00 L 343.29,180.00 Q 343.08,194.53 341.71,209.00 Q 338.90,208.17 336.18,207.11 Q 331.61,205.33 330.83,204.84 Q 327.07,202.51 327.25,197.25 Q 327.65,185.38 327.54,173.50 Z"/>
<path fill="#9a80d3" d="M 279.46,175.25 Q 280.94,177.81 284.50,177.75 Q 287.45,177.70 291.31,178.84 Q 294.97,179.91 297.95,180.42 Q 303.16,181.32 308.16,183.12 Q 308.89,183.38 309.38,182.95 Q 309.72,182.64 309.78,183.05 L 310.14,185.69 Q 310.20,186.10 310.23,185.69 L 310.71,178.50 L 310.71,195.25 Q 295.11,196.50 284.75,199.00 Q 279.16,200.35 268.50,204.54 L 268.25,204.46 L 267.96,198.00 Q 268.27,189.70 267.25,181.46 Q 267.24,181.05 267.54,180.75 L 279.46,175.25 Z"/>
<path fill="#9d83d5" d="M 200.96,186.25 L 202.95,192.70 A 0.64,0.62 79.5 0 0 203.57,193.14 Q 205.55,193.05 207.75,194.50 Q 209.99,195.97 213.94,196.06 A 0.66,0.65 82.9 0 1 214.56,196.55 Q 215.54,200.26 215.50,196.50 Q 215.47,192.75 215.54,189.00 L 216.04,237.75 Q 215.97,242.75 215.79,247.74 Q 215.73,249.28 215.78,247.00 Q 215.89,242.28 215.59,237.57 Q 215.54,236.73 215.64,237.55 Q 215.88,239.49 214.62,240.68 A 0.72,0.64 36.3 0 1 213.81,240.75 Q 210.04,238.66 205.76,237.95 Q 200.93,237.14 196.25,235.75 Q 195.12,235.41 194.57,236.02 A 1.19,0.27 85.5 0 0 194.44,236.93 Q 194.45,237.50 193.75,237.79 L 166.04,179.25 Q 167.08,178.88 168.19,180.06 Q 169.18,181.13 169.06,179.50 A 0.90,0.64 76.9 0 1 169.39,178.70 Q 170.77,177.92 173.68,179.65 A 3.05,3.04 54.5 0 0 175.86,180.02 Q 177.32,179.73 178.35,181.73 A 0.77,0.71 73.8 0 0 179.05,182.15 Q 182.98,181.90 186.69,183.11 Q 187.27,183.30 188.97,184.39 Q 190.14,185.13 191.54,185.26 Q 193.84,185.46 193.94,185.48 Q 194.96,185.64 196.00,185.72 A 2.00,1.22 -44.6 0 0 196.93,185.50 Q 198.64,184.63 199.75,186.27 Q 200.02,186.66 200.27,186.67 Q 200.64,186.69 200.96,186.25 Z"/>
<path fill="#c6b6ec" d="M 367.96,181.75 L 345.96,232.75 L 345.00,232.76 A 0.85,0.55 71.8 0 1 344.39,232.27 Q 344.24,231.96 343.91,232.05 Q 343.20,232.23 343.05,232.22 L 340.50,231.96 L 341.71,209.00 Q 343.08,194.53 343.29,180.00 Q 343.46,180.55 343.85,180.78 A 0.54,0.39 -62.2 0 0 344.48,180.47 Q 344.97,179.43 346.27,179.96 Q 351.37,182.03 357.04,183.32 Q 359.00,183.76 360.68,184.87 Q 362.36,185.98 364.61,183.95 A 0.80,0.80 57.0 0 1 365.88,184.22 Q 366.41,185.41 366.89,183.33 Q 367.12,182.31 367.96,181.75 Z"/>
<path fill="#766bc1" d="M 267.25,181.46 Q 268.27,189.70 267.96,198.00 L 251.00,195.46 L 252.50,193.79 Q 259.29,186.91 267.25,181.46 Z"/>
<path fill="#f2caf9" d="M 310.71,195.25 L 310.79,199.50 L 310.57,225.45 Q 310.57,226.42 310.56,225.44 Q 310.53,218.13 310.10,224.19 A 0.59,0.59 89.1 0 1 309.56,224.73 Q 305.05,225.04 300.57,224.40 Q 290.97,223.01 281.30,222.40 Q 280.66,222.36 276.24,221.78 Q 273.70,221.45 271.12,221.69 Q 271.07,221.69 269.91,221.98 Q 268.83,222.24 268.54,221.00 Q 267.87,212.77 268.50,204.54 Q 279.16,200.35 284.75,199.00 Q 295.11,196.50 310.71,195.25 Z"/>
<path fill="#6b65ba" d="M 251.00,195.46 L 267.96,198.00 L 268.25,204.46 Q 259.77,208.50 252.00,213.79 L 242.46,220.75 L 234.96,228.50 L 229.96,234.25 Q 229.61,231.82 230.25,230.75 Q 231.47,228.73 232.25,225.00 Q 233.00,221.43 235.46,217.12 Q 238.91,211.06 239.17,210.60 Q 243.88,202.14 251.00,195.46 Z"/>
<path fill="#d9bff0" d="M 310.79,199.50 L 310.96,247.00 Q 311.04,248.47 309.44,248.69 Q 302.24,249.64 293.00,252.96 Q 287.21,254.72 281.90,257.62 Q 275.73,261.00 269.50,264.29 Q 268.27,261.83 268.71,259.00 L 268.71,244.50 L 268.46,234.75 L 268.46,223.00 L 268.54,221.00 Q 268.83,222.24 269.91,221.98 Q 271.07,221.69 271.12,221.69 Q 273.70,221.45 276.24,221.78 Q 280.66,222.36 281.30,222.40 Q 290.97,223.01 300.57,224.40 Q 305.05,225.04 309.56,224.73 A 0.59,0.59 -89.2 0 0 310.10,224.19 Q 310.53,218.13 310.56,225.44 Q 310.57,226.42 310.57,225.45 L 310.79,199.50 Z"/>
<path fill="#cd97e6" d="M 268.25,204.46 L 268.50,204.54 Q 267.87,212.77 268.54,221.00 L 268.46,223.00 L 267.83,221.79 Q 267.66,221.46 267.48,221.77 Q 267.05,222.53 266.49,221.96 A 1.15,0.92 62.8 0 0 265.69,221.60 Q 264.00,221.64 262.64,220.62 Q 259.63,218.33 255.93,217.65 Q 255.61,217.59 255.08,217.20 L 252.26,215.16 A 0.87,0.63 -76.1 0 1 251.98,214.47 L 252.00,213.79 Q 259.77,208.50 268.25,204.46 Z"/>
<path fill="#c394e4" d="M 252.00,213.79 L 251.98,214.47 A 0.87,0.63 -76.1 0 0 252.26,215.16 L 255.08,217.20 Q 255.61,217.59 255.93,217.65 Q 259.63,218.33 262.64,220.62 Q 264.00,221.64 265.69,221.60 A 1.15,0.92 62.8 0 1 266.49,221.96 Q 267.05,222.53 267.48,221.77 Q 267.66,221.46 267.83,221.79 L 268.46,223.00 L 268.46,234.75 Q 268.18,233.12 266.80,233.32 A 1.89,1.03 -24.3 0 1 265.85,233.25 Q 259.40,230.59 253.17,227.45 Q 253.11,227.42 248.54,225.56 Q 246.25,224.63 243.69,222.81 Q 242.75,222.15 241.44,222.76 Q 241.13,222.91 241.37,222.67 Q 242.19,221.86 242.46,220.75 L 252.00,213.79 Z"/>
<path fill="#bb91e0" d="M 242.46,220.75 Q 242.19,221.86 241.37,222.67 Q 241.13,222.91 241.44,222.76 Q 242.75,222.15 243.69,222.81 Q 246.25,224.63 248.54,225.56 Q 253.11,227.42 253.17,227.45 Q 259.40,230.59 265.85,233.25 A 1.89,1.03 -24.3 0 0 266.80,233.32 Q 268.18,233.12 268.46,234.75 L 268.71,244.50 Q 267.85,243.56 266.77,243.96 A 1.37,0.96 -36.9 0 1 265.85,243.99 Q 248.63,236.72 245.75,234.75 Q 240.77,231.33 236.25,230.00 Q 234.94,229.61 234.96,228.50 L 242.46,220.75 Z"/>
<path fill="#b28ddd" d="M 234.96,228.50 Q 234.94,229.61 236.25,230.00 Q 240.77,231.33 245.75,234.75 Q 248.63,236.72 265.85,243.99 A 1.37,0.96 -36.9 0 0 266.77,243.96 Q 267.85,243.56 268.71,244.50 L 268.71,259.00 L 267.31,258.87 Q 266.62,258.80 266.40,258.66 Q 264.84,257.62 263.08,257.09 Q 261.14,256.50 259.83,255.64 Q 256.88,253.68 253.54,252.54 Q 251.78,251.94 250.18,250.97 Q 248.58,249.99 246.86,249.24 Q 243.78,247.89 241.87,246.79 Q 237.88,244.47 233.53,242.86 A 1.60,1.06 75.5 0 1 232.84,242.24 Q 232.22,241.23 231.03,241.53 A 0.81,0.76 -27.5 0 1 230.25,241.31 Q 229.08,240.01 229.40,242.94 Q 229.57,244.48 228.54,245.25 L 228.54,235.25 Q 229.42,234.97 229.96,234.25 L 234.96,228.50 Z"/>
<path fill="#a7a6e3" d="M 340.50,231.96 L 343.05,232.22 Q 343.20,232.23 343.91,232.05 Q 344.24,231.96 344.39,232.27 A 0.85,0.55 71.8 0 0 345.00,232.76 L 345.96,232.75 L 338.25,251.04 Q 337.85,249.91 338.25,248.88 Q 338.86,247.31 338.91,246.98 Q 339.75,241.27 339.96,235.50 L 340.50,231.96 Z"/>
<path fill="#766bc1" d="M 339.96,235.50 Q 339.75,241.27 338.91,246.98 Q 338.86,247.31 338.25,248.88 Q 337.85,249.91 338.25,251.04 Q 332.45,265.89 326.35,280.62 Q 325.99,281.49 325.43,281.70 Q 324.87,281.91 324.26,281.67 A 0.80,0.71 -80.3 0 1 323.81,280.95 L 323.54,237.50 Q 323.91,236.41 323.79,235.25 Q 323.58,233.14 324.07,234.10 Q 324.24,234.44 324.31,234.06 Q 324.54,232.89 325.16,233.39 A 0.79,0.72 51.0 0 0 325.95,233.51 Q 327.71,232.68 329.41,233.88 A 1.37,1.14 54.9 0 0 330.30,234.12 Q 332.38,233.85 334.45,234.11 Q 334.61,234.13 336.93,234.18 Q 338.62,234.22 339.96,235.50 Z"/>
<path fill="#7f72c7" d="M 216.04,237.75 L 216.21,260.00 Q 215.73,262.76 215.75,260.24 A 0.34,0.33 -80.3 0 0 215.53,259.92 Q 211.66,258.59 207.69,257.56 Q 205.60,257.02 204.28,257.39 A 0.61,0.46 79.5 0 0 203.96,258.03 Q 204.01,258.45 203.75,258.79 Q 200.02,252.03 197.20,244.84 Q 196.50,243.03 195.55,241.29 Q 194.61,239.56 193.75,237.79 Q 194.45,237.50 194.44,236.93 A 1.19,0.27 85.5 0 1 194.57,236.02 Q 195.12,235.41 196.25,235.75 Q 200.93,237.14 205.76,237.95 Q 210.04,238.66 213.81,240.75 A 0.72,0.64 36.3 0 0 214.62,240.68 Q 215.88,239.49 215.64,237.55 Q 215.54,236.73 215.59,237.57 Q 215.89,242.28 215.78,247.00 Q 215.73,249.28 215.79,247.74 Q 215.97,242.75 216.04,237.75 Z"/>
<path fill="#a688d8" d="M 268.71,259.00 Q 268.27,261.83 269.50,264.29 L 269.25,264.71 L 269.00,264.79 Q 264.44,265.65 260.82,262.87 Q 260.42,262.56 259.93,262.48 Q 252.14,261.12 244.25,256.75 Q 236.36,252.39 230.95,248.12 A 0.34,0.33 -62.7 0 0 230.42,248.29 Q 229.65,250.96 229.29,253.72 Q 229.15,254.76 229.23,253.00 Q 229.38,249.77 229.11,246.56 Q 229.06,246.01 229.06,246.56 L 228.96,258.00 L 228.54,245.25 Q 229.57,244.48 229.40,242.94 Q 229.08,240.01 230.25,241.31 A 0.81,0.76 -27.5 0 0 231.03,241.53 Q 232.22,241.23 232.84,242.24 A 1.60,1.06 75.5 0 0 233.53,242.86 Q 237.88,244.47 241.87,246.79 Q 243.78,247.89 246.86,249.24 Q 248.58,249.99 250.18,250.97 Q 251.78,251.94 253.54,252.54 Q 256.88,253.68 259.83,255.64 Q 261.14,256.50 263.08,257.09 Q 264.84,257.62 266.40,258.66 Q 266.62,258.80 267.31,258.87 L 268.71,259.00 Z"/>
<path fill="#9d83d5" d="M 269.00,264.79 L 268.75,265.21 Q 262.86,268.83 258.00,273.79 Q 255.98,271.48 252.78,270.70 A 1.45,1.38 77.5 0 1 251.98,270.16 Q 250.80,268.57 249.18,268.12 Q 246.63,267.41 246.55,267.37 Q 243.64,266.04 240.83,264.51 Q 240.72,264.45 236.83,261.68 Q 234.64,260.12 231.66,259.44 A 0.50,0.49 -81.5 0 0 231.06,259.89 Q 230.92,261.52 230.54,259.94 Q 230.50,259.77 230.52,259.55 Q 230.60,258.09 230.03,256.77 Q 229.81,256.26 229.80,256.82 Q 229.75,260.54 229.93,264.26 Q 229.94,264.44 229.90,264.60 Q 229.54,266.22 229.53,264.75 Q 229.50,262.00 229.33,259.26 Q 229.23,257.73 229.34,260.00 Q 229.41,261.29 229.04,262.50 L 228.96,258.00 L 229.06,246.56 Q 229.06,246.01 229.11,246.56 Q 229.38,249.77 229.23,253.00 Q 229.15,254.76 229.29,253.72 Q 229.65,250.96 230.42,248.29 A 0.34,0.33 -62.7 0 1 230.95,248.12 Q 236.36,252.39 244.25,256.75 Q 252.14,261.12 259.93,262.48 Q 260.42,262.56 260.82,262.87 Q 264.44,265.65 269.00,264.79 Z"/>
<path fill="#9a80d3" d="M 310.96,247.00 L 310.96,258.00 Q 311.16,255.35 309.22,255.85 A 1.66,1.33 -36.3 0 1 308.28,255.81 Q 304.17,254.23 299.75,254.25 Q 296.09,254.27 295.50,253.50 Q 294.62,252.35 293.00,252.96 Q 302.24,249.64 309.44,248.69 Q 311.04,248.47 310.96,247.00 Z"/>
<path fill="#8977cc" d="M 310.96,258.00 L 310.96,268.75 L 310.49,269.81 A 0.70,0.64 15.6 0 1 309.76,270.18 Q 307.85,269.89 306.02,269.24 Q 303.62,268.37 302.36,268.13 Q 287.81,265.37 273.00,265.01 A 1.70,1.12 54.8 0 1 272.13,264.67 Q 270.87,263.73 269.25,264.71 L 269.50,264.29 Q 275.73,261.00 281.90,257.62 Q 287.21,254.72 293.00,252.96 Q 294.62,252.35 295.50,253.50 Q 296.09,254.27 299.75,254.25 Q 304.17,254.23 308.28,255.81 A 1.66,1.33 -36.3 0 0 309.22,255.85 Q 311.16,255.35 310.96,258.00 Z"/>
<path fill="#967fd2" d="M 258.00,273.79 L 251.75,280.04 Q 243.83,275.66 241.69,274.81 Q 238.57,273.57 236.73,271.62 Q 234.93,269.72 234.35,269.30 Q 232.98,268.33 231.52,267.51 A 0.82,0.78 45.0 0 0 230.77,267.49 Q 229.34,268.21 229.21,269.75 L 229.04,262.50 Q 229.41,261.29 229.34,260.00 Q 229.23,257.73 229.33,259.26 Q 229.50,262.00 229.53,264.75 Q 229.54,266.22 229.90,264.60 Q 229.94,264.44 229.93,264.26 Q 229.75,260.54 229.80,256.82 Q 229.81,256.26 230.03,256.77 Q 230.60,258.09 230.52,259.55 Q 230.50,259.77 230.54,259.94 Q 230.92,261.52 231.06,259.89 A 0.50,0.49 -81.5 0 1 231.66,259.44 Q 234.64,260.12 236.83,261.68 Q 240.72,264.45 240.83,264.51 Q 243.64,266.04 246.55,267.37 Q 246.63,267.41 249.18,268.12 Q 250.80,268.57 251.98,270.16 A 1.45,1.38 77.5 0 0 252.78,270.70 Q 255.98,271.48 258.00,273.79 Z"/>
<path fill="#6b65ba" d="M 216.21,260.00 L 216.25,282.25 Q 216.25,284.15 215.31,282.69 Q 214.63,281.63 214.10,280.48 Q 209.08,269.56 203.75,258.79 Q 204.01,258.45 203.96,258.03 A 0.61,0.46 79.5 0 1 204.28,257.39 Q 205.60,257.02 207.69,257.56 Q 211.66,258.59 215.53,259.92 A 0.34,0.33 -80.3 0 1 215.75,260.24 Q 215.73,262.76 216.21,260.00 Z"/>
<path fill="#766bc1" d="M 310.96,268.75 L 310.75,277.04 Q 288.86,281.15 284.81,282.81 Q 277.15,285.96 269.54,289.25 Q 268.77,282.27 268.95,275.25 Q 269.08,270.22 268.75,265.21 L 269.00,264.79 L 269.25,264.71 Q 270.87,263.73 272.13,264.67 A 1.70,1.12 54.8 0 0 273.00,265.01 Q 287.81,265.37 302.36,268.13 Q 303.62,268.37 306.02,269.24 Q 307.85,269.89 309.76,270.18 A 0.70,0.64 15.6 0 0 310.49,269.81 L 310.96,268.75 Z"/>
<path fill="#585ab0" d="M 268.75,265.21 Q 269.08,270.22 268.95,275.25 Q 268.77,282.27 269.54,289.25 L 268.96,290.00 Q 263.55,292.89 253.94,300.19 Q 245.70,306.44 242.25,310.21 Q 238.51,314.48 236.75,316.75 Q 236.18,317.49 235.25,317.29 L 232.54,311.00 Q 233.48,307.23 236.44,301.94 Q 241.95,292.06 244.54,288.25 L 251.75,280.04 L 258.00,273.79 Q 262.86,268.83 268.75,265.21 Z"/>
<path fill="#8e7bce" d="M 251.75,280.04 L 244.54,288.25 Q 243.18,288.68 241.50,287.25 Q 236.73,283.18 235.33,281.65 Q 233.50,279.65 230.98,278.88 A 0.54,0.52 17.3 0 0 230.33,279.21 L 230.15,279.76 Q 229.97,280.29 229.89,279.76 L 229.29,276.00 L 229.21,269.75 Q 229.34,268.21 230.77,267.49 A 0.82,0.78 45.0 0 1 231.52,267.51 Q 232.98,268.33 234.35,269.30 Q 234.93,269.72 236.73,271.62 Q 238.57,273.57 241.69,274.81 Q 243.83,275.66 251.75,280.04 Z"/>
<path fill="#7f72c7" d="M 229.29,276.00 L 229.89,279.76 Q 229.97,280.29 230.15,279.76 L 230.33,279.21 A 0.54,0.52 17.3 0 1 230.98,278.88 Q 233.50,279.65 235.33,281.65 Q 236.73,283.18 241.50,287.25 Q 243.18,288.68 244.54,288.25 Q 241.95,292.06 236.44,301.94 Q 233.48,307.23 232.54,311.00 Q 231.69,308.63 230.73,306.30 Q 229.75,303.93 229.73,301.48 Q 229.64,288.74 229.29,276.00 Z"/>
<path fill="#dcc0f1" d="M 310.75,277.04 Q 311.17,290.31 310.99,303.59 Q 310.95,307.03 309.83,310.10 Q 307.28,317.10 304.00,323.79 L 300.25,324.46 A 0.99,0.87 -79.5 0 0 299.60,324.97 Q 299.21,325.75 298.00,325.50 Q 292.90,324.45 285.62,323.84 A 0.67,0.32 -54.0 0 0 285.17,324.08 L 284.95,324.31 A 1.01,0.48 25.0 0 1 284.03,324.32 Q 278.81,322.37 276.00,322.50 Q 272.46,322.66 270.75,320.79 L 268.96,290.00 L 269.54,289.25 Q 277.15,285.96 284.81,282.81 Q 288.86,281.15 310.75,277.04 Z"/>
<path fill="#a286d7" d="M 268.96,290.00 L 270.75,320.79 L 270.71,321.25 Q 266.34,322.24 263.19,320.56 Q 259.21,318.44 256.06,317.27 Q 252.71,316.03 249.66,314.67 Q 246.49,313.25 243.05,312.54 A 1.12,0.87 -1.8 0 1 242.31,312.00 Q 241.93,311.17 242.25,310.21 Q 245.70,306.44 253.94,300.19 Q 263.55,292.89 268.96,290.00 Z"/>
<path fill="#917dcf" d="M 242.25,310.21 Q 241.93,311.17 242.31,312.00 A 1.12,0.87 -1.8 0 0 243.05,312.54 Q 246.49,313.25 249.66,314.67 Q 252.71,316.03 256.06,317.27 Q 259.21,318.44 263.19,320.56 Q 266.34,322.24 270.71,321.25 L 271.71,341.75 Q 271.42,341.07 271.01,341.49 A 1.45,1.45 -57.4 0 1 269.47,341.83 Q 261.28,338.74 254.64,336.47 Q 254.20,336.32 251.40,335.86 Q 249.66,335.58 248.30,334.40 A 1.37,1.29 -22.4 0 0 247.44,334.07 L 243.54,334.00 L 235.25,317.29 Q 236.18,317.49 236.75,316.75 Q 238.51,314.48 242.25,310.21 Z"/>
<path fill="#c1b3ea" d="M 270.75,320.79 Q 272.46,322.66 276.00,322.50 Q 278.81,322.37 284.03,324.32 A 1.01,0.48 25.0 0 0 284.95,324.31 L 285.17,324.08 A 0.67,0.32 -54.0 0 1 285.62,323.84 Q 292.90,324.45 298.00,325.50 Q 299.21,325.75 299.60,324.97 A 0.99,0.87 -79.5 0 1 300.25,324.46 L 304.00,323.79 L 290.50,356.79 Q 288.62,356.41 286.68,356.54 Q 284.99,356.64 283.57,356.03 Q 281.58,355.16 280.73,354.98 Q 278.90,354.59 276.00,353.75 Q 274.83,353.41 273.39,353.99 A 0.47,0.42 68.8 0 1 272.82,353.70 Q 272.65,353.28 272.29,353.00 L 271.71,341.75 L 270.71,321.25 L 270.75,320.79 Z"/>
<path fill="#7f72c7" d="M 271.71,341.75 L 272.29,353.00 L 272.71,368.75 Q 268.76,369.60 266.31,367.69 Q 263.93,365.83 261.81,365.60 A 0.70,0.48 -73.2 0 0 261.24,366.06 Q 261.08,366.48 260.54,366.50 L 243.54,334.00 L 247.44,334.07 A 1.37,1.29 -22.4 0 1 248.30,334.40 Q 249.66,335.58 251.40,335.86 Q 254.20,336.32 254.64,336.47 Q 261.28,338.74 269.47,341.83 A 1.45,1.45 -57.4 0 0 271.01,341.49 Q 271.42,341.07 271.71,341.75 Z"/>
<path fill="#a7a6e3" d="M 272.29,353.00 Q 272.65,353.28 272.82,353.70 A 0.47,0.42 68.8 0 0 273.39,353.99 Q 274.83,353.41 276.00,353.75 Q 278.90,354.59 280.73,354.98 Q 281.58,355.16 283.57,356.03 Q 284.99,356.64 286.68,356.54 Q 288.62,356.41 290.50,356.79 Q 285.12,368.97 280.82,381.57 Q 278.32,388.91 275.17,396.41 Q 274.81,397.26 274.47,396.37 L 272.71,391.75 L 273.11,391.52 A 0.84,0.75 75.1 0 0 273.48,390.79 L 272.71,368.75 L 272.29,353.00 Z"/>
<path fill="#6b65ba" d="M 272.71,368.75 L 273.48,390.79 A 0.84,0.75 75.1 0 1 273.11,391.52 L 272.71,391.75 L 260.54,366.50 Q 261.08,366.48 261.24,366.06 A 0.70,0.48 -73.2 0 1 261.81,365.60 Q 263.93,365.83 266.31,367.69 Q 268.76,369.60 272.71,368.75 Z"/>
</svg>